# xmcd
#
# Track frame offsets:
# 150
# 12595
# 27371
# 41438
# 53366
# 68415
# 83276
# 93023
# 111436
# 123758
# 138649
# 151031
#
# Disc length: 2230 seconds
#
#
# Revision: 1
# Processed by: cddbd v1.5.2PL0 Copyright (c) Steve Scherf et al.
# Submitted via: FreeRIP 2.96 
#
DISCID=8108b40c
DTITLE=The Cockman Family - Keep On The Firing Line
DYEAR=1900
DGENRE=Bluegrass Gospel
TTITLE0=Keep On The Firing Line
TTITLE1=How Can Two Walk Together
TTITLE2=The Old Rugged Cross
TTITLE3=I'm Winging My Way Back Home
TTITLE4=Sail On
TTITLE5=A Deep Settled Peace
TTITLE6=Where The Soul Never Dies
TTITLE7=When They Ring Those Golden Bells
TTITLE8=In The Arms Of Jesus
TTITLE9=Old Soldiers Reunion
TTITLE10=I've Met The Lord
TTITLE11=Sweet By and By
EXTD=
EXTT0=
EXTT1=
EXTT2=
EXTT3=
EXTT4=
EXTT5=
EXTT6=
EXTT7=
EXTT8=
EXTT9=
EXTT10=
EXTT11=
PLAYORDER=
